<?xml version="1.0" encoding="UTF-8"?>
<svg id="Layer_1" xmlns="http://www.w3.org/2000/svg" version="1.1" viewBox="0 0 24 24">
  <!-- Generator: Adobe Illustrator 29.6.0, SVG Export Plug-In . SVG Version: 2.1.1 Build 207)  -->
  <defs>
    <style>
      .st0 {
        fill: #1f1f1f;
      }
    </style>
  </defs>
  <path class="st0" d="M20.86,5.65c-.09-.25-.24-.47-.44-.65l-1.38-1.4c-.18-.2-.4-.35-.65-.45-.25-.1-.51-.15-.78-.15s-.52.05-.76.15c-.24.1-.46.24-.66.42L3,16.75v4.25h4.25l1.29-1.29c-.29-.52-.44-1.09-.44-1.71,0-.26.03-.51.08-.76l-1.76,1.76h-1.42v-1.42L14.78,7.8l.7.73.73.7-4.93,4.93c.56-.18,1.17-.28,1.83-.28h1.28l6.05-6.05c.2-.2.35-.42.44-.66.09-.24.14-.5.14-.76,0-.25-.05-.5-.14-.75Z"/>
  <path class="st0" d="M14.4,21h-2.4c-.83,0-1.54-.29-2.12-.88s-.88-1.29-.88-2.12.29-1.54.88-2.12,1.29-.88,2.12-.88h2.4v1.2h-2.4c-.5,0-.93.18-1.28.53s-.53.78-.53,1.28.18.92.53,1.28.78.53,1.28.53h2.4v1.2ZM12.6,18.6v-1.2h4.8v1.2h-4.8ZM15.6,21v-1.2h2.4c.5,0,.93-.17,1.28-.53s.53-.77.53-1.28-.18-.93-.53-1.28-.78-.53-1.28-.53h-2.4v-1.2h2.4c.83,0,1.54.29,2.12.88s.88,1.29.88,2.12-.29,1.54-.88,2.12-1.29.88-2.12.88h-2.4Z"/>
</svg>