<?xml version="1.0" encoding="UTF-8"?>
<svg id="Layer_1" xmlns="http://www.w3.org/2000/svg" version="1.1" viewBox="0 0 24 24">
  <!-- Generator: Adobe Illustrator 29.6.0, SVG Export Plug-In . SVG Version: 2.1.1 Build 207)  -->
  <defs>
    <style>
      .st0 {
        fill: #1f1f1f;
      }
    </style>
  </defs>
  <path class="st0" d="M11.56,17.07s.09-.06.13-.09c-1.76-.05-3.39-.53-4.87-1.47-1.58-.99-2.78-2.33-3.61-4.01.83-1.68,2.04-3.02,3.61-4.01,1.58-.99,3.3-1.49,5.19-1.49s3.61.5,5.19,1.49c1.58.99,2.78,2.33,3.61,4.01-.83,1.68-2.04,3.02-3.61,4.01-.21.13-.43.23-.65.35h3.5c1.3-1.19,2.28-2.65,2.96-4.36-.9-2.28-2.35-4.1-4.35-5.46s-4.22-2.04-6.65-2.04-4.65.68-6.65,2.04-3.45,3.18-4.35,5.46c.9,2.28,2.35,4.1,4.35,5.46,1.52,1.03,3.17,1.67,4.94,1.92.22-.67.63-1.28,1.27-1.81Z"/>
  <path class="st0" d="M16.4,22.99h-2.4c-.83,0-1.54-.29-2.12-.88s-.88-1.29-.88-2.12.29-1.54.88-2.12,1.29-.88,2.12-.88h2.4v1.2h-2.4c-.5,0-.93.18-1.28.53s-.53.78-.53,1.28.18.92.53,1.28.78.53,1.28.53h2.4v1.2ZM14.6,20.59v-1.2h4.8v1.2h-4.8ZM17.6,22.99v-1.2h2.4c.5,0,.93-.17,1.28-.53s.53-.77.53-1.28-.18-.93-.53-1.28-.78-.53-1.28-.53h-2.4v-1.2h2.4c.83,0,1.54.29,2.12.88s.88,1.29.88,2.12-.29,1.54-.88,2.12-1.29.88-2.12.88h-2.4Z"/>
  <circle class="st0" cx="12" cy="11.44" r="3.44"/>
</svg>